<svg width="113" height="113" viewBox="0 0 113 113" fill="none" xmlns="http://www.w3.org/2000/svg">
<circle cx="56.5" cy="56.5" r="56.5" fill="white"/>
<path d="M67.0156 71C67.0156 69.8438 66.8438 68.8125 66.5 67.9062C66.1562 66.9688 65.5312 66.1094 64.625 65.3281C63.7188 64.5469 62.4375 63.7656 60.7812 62.9844C59.125 62.1719 56.9531 61.3438 54.2656 60.5C51.2031 59.5 48.2812 58.375 45.5 57.125C42.75 55.8438 40.2969 54.3594 38.1406 52.6719C35.9844 50.9844 34.2812 49.0156 33.0312 46.7656C31.8125 44.5156 31.2031 41.8906 31.2031 38.8906C31.2031 35.9844 31.8438 33.3594 33.125 31.0156C34.4062 28.6719 36.2031 26.6719 38.5156 25.0156C40.8281 23.3281 43.5469 22.0469 46.6719 21.1719C49.7969 20.2656 53.2344 19.8125 56.9844 19.8125C61.9844 19.8125 66.375 20.7031 70.1562 22.4844C73.9688 24.2344 76.9375 26.7031 79.0625 29.8906C81.1875 33.0469 82.25 36.7188 82.25 40.9062H67.0625C67.0625 39.0625 66.6719 37.4375 65.8906 36.0312C65.1406 34.5938 63.9844 33.4688 62.4219 32.6562C60.8906 31.8438 58.9688 31.4375 56.6562 31.4375C54.4062 31.4375 52.5156 31.7812 50.9844 32.4688C49.4844 33.125 48.3438 34.0312 47.5625 35.1875C46.8125 36.3438 46.4375 37.6094 46.4375 38.9844C46.4375 40.0781 46.7188 41.0781 47.2812 41.9844C47.875 42.8594 48.7188 43.6875 49.8125 44.4688C50.9375 45.2188 52.3125 45.9375 53.9375 46.625C55.5625 47.3125 57.4219 47.9688 59.5156 48.5938C63.1719 49.75 66.4062 51.0312 69.2188 52.4375C72.0625 53.8438 74.4531 55.4375 76.3906 57.2188C78.3281 59 79.7812 61.0156 80.75 63.2656C81.75 65.5156 82.25 68.0625 82.25 70.9062C82.25 73.9375 81.6562 76.625 80.4688 78.9688C79.3125 81.3125 77.625 83.3125 75.4062 84.9688C73.2188 86.5938 70.5938 87.8281 67.5312 88.6719C64.4688 89.5156 61.0469 89.9375 57.2656 89.9375C53.8281 89.9375 50.4375 89.5 47.0938 88.625C43.75 87.7188 40.7188 86.3438 38 84.5C35.3125 82.6562 33.1562 80.3125 31.5312 77.4688C29.9375 74.5938 29.1406 71.1875 29.1406 67.25H44.4219C44.4219 69.3125 44.7188 71.0625 45.3125 72.5C45.9062 73.9062 46.75 75.0469 47.8438 75.9219C48.9688 76.7969 50.3281 77.4219 51.9219 77.7969C53.5156 78.1719 55.2969 78.3594 57.2656 78.3594C59.5469 78.3594 61.3906 78.0469 62.7969 77.4219C64.2344 76.7656 65.2969 75.875 65.9844 74.75C66.6719 73.625 67.0156 72.375 67.0156 71Z" fill="black"/>
</svg>
